<mxfile host="app.diagrams.net" agent="Mozilla/5.0 (X11; Linux x86_64) AppleWebKit/537.36 (KHTML, like Gecko) Chrome/129.0.0.0 Safari/537.36" version="24.8.0">
  <diagram name="Pàgina-1" id="iYUXUyXI3bTQenoI2wBv">
    <mxGraphModel dx="1114" dy="592" grid="1" gridSize="10" guides="1" tooltips="1" connect="1" arrows="1" fold="1" page="1" pageScale="1" pageWidth="827" pageHeight="1169" math="0" shadow="0">
      <root>
        <mxCell id="0" />
        <mxCell id="1" parent="0" />
        <mxCell id="y_Qhik4XPTp8zQZSwxhd-2" style="edgeStyle=orthogonalEdgeStyle;rounded=0;orthogonalLoop=1;jettySize=auto;html=1;entryX=0.5;entryY=0;entryDx=0;entryDy=0;" parent="1" source="x7MdzEhbPjzZ_axmg5Fu-2" target="x7MdzEhbPjzZ_axmg5Fu-8" edge="1">
          <mxGeometry relative="1" as="geometry" />
        </mxCell>
        <mxCell id="x7MdzEhbPjzZ_axmg5Fu-2" value="" style="shape=waypoint;sketch=0;fillStyle=solid;size=6;pointerEvents=1;points=[];fillColor=none;resizable=0;rotatable=0;perimeter=centerPerimeter;snapToPoint=1;strokeWidth=9;" parent="1" vertex="1">
          <mxGeometry x="410" y="30" width="20" height="20" as="geometry" />
        </mxCell>
        <mxCell id="x7MdzEhbPjzZ_axmg5Fu-3" value="Reserva pagada" style="rounded=1;whiteSpace=wrap;html=1;" parent="1" vertex="1">
          <mxGeometry x="360" y="330" width="120" height="60" as="geometry" />
        </mxCell>
        <mxCell id="x7MdzEhbPjzZ_axmg5Fu-18" style="edgeStyle=orthogonalEdgeStyle;rounded=0;orthogonalLoop=1;jettySize=auto;html=1;exitX=0.5;exitY=1;exitDx=0;exitDy=0;entryX=0.5;entryY=0;entryDx=0;entryDy=0;" parent="1" source="x7MdzEhbPjzZ_axmg5Fu-4" target="x7MdzEhbPjzZ_axmg5Fu-22" edge="1">
          <mxGeometry relative="1" as="geometry">
            <mxPoint x="420" y="585" as="targetPoint" />
          </mxGeometry>
        </mxCell>
        <mxCell id="ooaoRvz5fOL1h6HfvoQl-14" style="edgeStyle=orthogonalEdgeStyle;rounded=0;orthogonalLoop=1;jettySize=auto;html=1;exitX=0;exitY=0.5;exitDx=0;exitDy=0;entryX=1;entryY=0.5;entryDx=0;entryDy=0;" edge="1" parent="1" source="x7MdzEhbPjzZ_axmg5Fu-4" target="ooaoRvz5fOL1h6HfvoQl-2">
          <mxGeometry relative="1" as="geometry" />
        </mxCell>
        <mxCell id="ooaoRvz5fOL1h6HfvoQl-15" style="edgeStyle=orthogonalEdgeStyle;rounded=0;orthogonalLoop=1;jettySize=auto;html=1;exitX=1;exitY=0.5;exitDx=0;exitDy=0;entryX=0;entryY=0.5;entryDx=0;entryDy=0;" edge="1" parent="1" source="x7MdzEhbPjzZ_axmg5Fu-4" target="x7MdzEhbPjzZ_axmg5Fu-19">
          <mxGeometry relative="1" as="geometry" />
        </mxCell>
        <mxCell id="x7MdzEhbPjzZ_axmg5Fu-4" value="Reserva activa" style="rounded=1;whiteSpace=wrap;html=1;" parent="1" vertex="1">
          <mxGeometry x="360" y="460" width="120" height="60" as="geometry" />
        </mxCell>
        <mxCell id="x7MdzEhbPjzZ_axmg5Fu-5" value="" style="endArrow=classic;html=1;rounded=0;entryX=0.5;entryY=0;entryDx=0;entryDy=0;exitX=0.5;exitY=1;exitDx=0;exitDy=0;" parent="1" source="x7MdzEhbPjzZ_axmg5Fu-3" target="x7MdzEhbPjzZ_axmg5Fu-4" edge="1">
          <mxGeometry width="50" height="50" relative="1" as="geometry">
            <mxPoint x="418" y="410" as="sourcePoint" />
            <mxPoint x="458" y="440" as="targetPoint" />
          </mxGeometry>
        </mxCell>
        <mxCell id="y_Qhik4XPTp8zQZSwxhd-1" style="edgeStyle=orthogonalEdgeStyle;rounded=0;orthogonalLoop=1;jettySize=auto;html=1;exitX=0.5;exitY=1;exitDx=0;exitDy=0;entryX=0.5;entryY=0;entryDx=0;entryDy=0;" parent="1" source="x7MdzEhbPjzZ_axmg5Fu-8" target="x7MdzEhbPjzZ_axmg5Fu-10" edge="1">
          <mxGeometry relative="1" as="geometry" />
        </mxCell>
        <mxCell id="x7MdzEhbPjzZ_axmg5Fu-8" value="Reserva iniciada" style="rounded=1;whiteSpace=wrap;html=1;" parent="1" vertex="1">
          <mxGeometry x="360" y="100" width="120" height="60" as="geometry" />
        </mxCell>
        <mxCell id="x7MdzEhbPjzZ_axmg5Fu-9" style="edgeStyle=orthogonalEdgeStyle;rounded=0;orthogonalLoop=1;jettySize=auto;html=1;exitX=0.5;exitY=1;exitDx=0;exitDy=0;entryX=0.5;entryY=0;entryDx=0;entryDy=0;" parent="1" source="x7MdzEhbPjzZ_axmg5Fu-10" target="x7MdzEhbPjzZ_axmg5Fu-3" edge="1">
          <mxGeometry relative="1" as="geometry" />
        </mxCell>
        <mxCell id="x7MdzEhbPjzZ_axmg5Fu-10" value="Reserva confirmada" style="rounded=1;whiteSpace=wrap;html=1;" parent="1" vertex="1">
          <mxGeometry x="360" y="210" width="120" height="60" as="geometry" />
        </mxCell>
        <mxCell id="x7MdzEhbPjzZ_axmg5Fu-15" value="Realitzar pagament" style="text;html=1;align=center;verticalAlign=middle;whiteSpace=wrap;rounded=0;rotation=90;" parent="1" vertex="1">
          <mxGeometry x="408" y="410" width="60" height="30" as="geometry" />
        </mxCell>
        <mxCell id="x7MdzEhbPjzZ_axmg5Fu-19" value="Reserva cancel·lada" style="rounded=1;whiteSpace=wrap;html=1;" parent="1" vertex="1">
          <mxGeometry x="570" y="460" width="120" height="60" as="geometry" />
        </mxCell>
        <mxCell id="x7MdzEhbPjzZ_axmg5Fu-21" value="Finalitzar navegació" style="text;html=1;align=center;verticalAlign=middle;whiteSpace=wrap;rounded=0;rotation=90;" parent="1" vertex="1">
          <mxGeometry x="420" y="540" width="60" height="30" as="geometry" />
        </mxCell>
        <mxCell id="x7MdzEhbPjzZ_axmg5Fu-22" value="" style="ellipse;html=1;shape=endState;fillColor=#000000;strokeColor=#ff0000;" parent="1" vertex="1">
          <mxGeometry x="405" y="590" width="30" height="30" as="geometry" />
        </mxCell>
        <mxCell id="x7MdzEhbPjzZ_axmg5Fu-34" value="Start" style="text;html=1;align=center;verticalAlign=middle;whiteSpace=wrap;rounded=0;" parent="1" vertex="1">
          <mxGeometry x="390" width="60" height="30" as="geometry" />
        </mxCell>
        <mxCell id="x7MdzEhbPjzZ_axmg5Fu-35" value="End" style="text;html=1;align=center;verticalAlign=middle;whiteSpace=wrap;rounded=0;" parent="1" vertex="1">
          <mxGeometry x="390" y="620" width="60" height="30" as="geometry" />
        </mxCell>
        <mxCell id="y_Qhik4XPTp8zQZSwxhd-4" value="&lt;span style=&quot;color: rgb(0, 0, 0); font-family: Helvetica; font-size: 12px; font-style: normal; font-variant-ligatures: normal; font-variant-caps: normal; font-weight: 400; letter-spacing: normal; orphans: 2; text-align: center; text-indent: 0px; text-transform: none; widows: 2; word-spacing: 0px; -webkit-text-stroke-width: 0px; white-space: normal; background-color: rgb(251, 251, 251); text-decoration-thickness: initial; text-decoration-style: initial; text-decoration-color: initial; display: inline !important; float: none;&quot;&gt;Iniciar reserva&lt;/span&gt;" style="text;whiteSpace=wrap;html=1;rotation=90;" parent="1" vertex="1">
          <mxGeometry x="414" y="170" width="50" height="40" as="geometry" />
        </mxCell>
        <mxCell id="y_Qhik4XPTp8zQZSwxhd-6" value="&lt;span style=&quot;text-wrap: nowrap;&quot;&gt;Confirmar&lt;br&gt;&amp;nbsp;reserva&lt;/span&gt;" style="text;html=1;align=center;verticalAlign=middle;whiteSpace=wrap;rounded=0;rotation=90;" parent="1" vertex="1">
          <mxGeometry x="405" y="280" width="70" height="40" as="geometry" />
        </mxCell>
        <mxCell id="y_Qhik4XPTp8zQZSwxhd-9" value="Cancel·lar reserva" style="text;html=1;align=center;verticalAlign=middle;whiteSpace=wrap;rounded=0;rotation=0;" parent="1" vertex="1">
          <mxGeometry x="490" y="460" width="60" height="30" as="geometry" />
        </mxCell>
        <mxCell id="ooaoRvz5fOL1h6HfvoQl-16" style="edgeStyle=orthogonalEdgeStyle;rounded=0;orthogonalLoop=1;jettySize=auto;html=1;exitX=0.5;exitY=0;exitDx=0;exitDy=0;entryX=0.25;entryY=0;entryDx=0;entryDy=0;" edge="1" parent="1" source="ooaoRvz5fOL1h6HfvoQl-2" target="x7MdzEhbPjzZ_axmg5Fu-4">
          <mxGeometry relative="1" as="geometry" />
        </mxCell>
        <mxCell id="ooaoRvz5fOL1h6HfvoQl-2" value="Reserva Replanificada" style="rounded=1;whiteSpace=wrap;html=1;" vertex="1" parent="1">
          <mxGeometry x="150" y="460" width="120" height="60" as="geometry" />
        </mxCell>
        <mxCell id="ooaoRvz5fOL1h6HfvoQl-17" value="Modificar &lt;br&gt;Reserva" style="text;html=1;align=center;verticalAlign=middle;resizable=0;points=[];autosize=1;strokeColor=none;fillColor=none;" vertex="1" parent="1">
          <mxGeometry x="280" y="455" width="70" height="40" as="geometry" />
        </mxCell>
        <mxCell id="ooaoRvz5fOL1h6HfvoQl-18" value="Reserva &lt;br&gt;Modificada" style="text;html=1;align=center;verticalAlign=middle;resizable=0;points=[];autosize=1;strokeColor=none;fillColor=none;" vertex="1" parent="1">
          <mxGeometry x="265" y="400" width="80" height="40" as="geometry" />
        </mxCell>
      </root>
    </mxGraphModel>
  </diagram>
</mxfile>
